<svg width="22.494" height="21.081" version="1.1" xml:space="preserve" xmlns="http://www.w3.org/2000/svg">
    <g transform="matrix(1.5451 0 0 1.5451 -12.361 -12.659)" style="stroke-width:.71191;stroke:#000000">
        <path
            d="m13.979 11.935a2.2371 2.2371 0 01-2.2371 2.2371 2.2371 2.2371 0 01-2.2371-2.2371 2.2371 2.2371 0 012.2371-2.2371 2.2371 2.2371 0 012.2371 2.2371z"
            style="fill:none;opacity:.992;stroke-width:.71191;stroke:#000000" />
        <g style="stroke-width:.71191;stroke:#000000">
            <path d="M 9.5049,11.935 H 8" style="fill:none;stroke-width:.71191;stroke:#000000" />
            <path d="m15.484 11.935h-1.5049" style="fill:none;stroke-width:.71191;stroke:#000000" />
            <path d="m11.742 9.6979v-1.5049" style="fill:none;stroke-width:.71191;stroke:#000000" />
            <path d="m11.742 15.677v-1.5049" style="fill:none;stroke-width:.71191;stroke:#000000" />
        </g>
        <path
            d="m12.932 11.935a1.19 1.19 0 01-1.19 1.19 1.19 1.19 0 01-1.19-1.19 1.19 1.19 0 011.19-1.19 1.19 1.19 0 011.19 1.19z"
            style="fill:#000000;opacity:.992;stroke:none" />
    </g>
    <path
        d="m17.744 19.081h4.75v2h-6.75zm-12.5 2-2.125-2.125c-.38332-.38332-.57918-.85832-.5875-1.425-.0083-.56668.17917-1.05.5625-1.45l11-11.4c.38332-.4.85418-.6 1.4125-.6s1.0292.19167 1.4125.575l4.975 4.975c.38332.38332.575.85832.575 1.425s-.19167 1.0417-.575 1.425l-8.4 8.6zm7.4-2 5.6938-5.8938-4.95-4.95-8.8938 9.2438 1.6 1.6z"
        style="stroke-width:.025" />
</svg>