<svg width="32" height="32" version="1.1" viewBox="0 0 8.4667 8.4667" xmlns="http://www.w3.org/2000/svg">
 <g transform="matrix(1.2911 0 0 1.2911 -3.0043 -.59313)" style="stroke-width:.20493" aria-label="?">
  <path d="m4.9161 6.6146v-.74655h.74655v.74655zm0-1.4969v-.20464q0-.42444.11369-.70487.11748-.28043.44338-.6556l.23874-.27664q.59497-.68213.59497-1.1179 0-.33727-.26527-.53433-.26148-.19706-.70866-.19706-.57223 0-1.224.28043v-.63286q.70108-.21222 1.3188-.21222.76929 0 1.2203.34864.45475.34485.45475.93603 0 .33348-.13264.57602-.12885.23874-.50023.59118l-.23496.2198q-.35243.33348-.46233.56086-.1099.22359-.1099.60634v.41686z" style="stroke-width:.20493"/>
 </g>
</svg>
